<svg width="1718" height="275" viewBox="0 0 1718 275" fill="none" xmlns="http://www.w3.org/2000/svg">
<path d="M0.355469 270V0.851562H87.5625C120.609 0.851562 142.151 2.19792 152.188 4.89062C167.609 8.92969 180.522 17.7422 190.926 31.3281C201.329 44.7917 206.531 62.2331 206.531 83.6523C206.531 100.176 203.533 114.068 197.535 125.328C191.538 136.589 183.888 145.462 174.586 151.949C165.406 158.314 156.043 162.536 146.496 164.617C133.522 167.188 114.734 168.473 90.1328 168.473H54.6992V270H0.355469ZM54.6992 46.3828V122.758H84.4414C105.861 122.758 120.181 121.35 127.402 118.535C134.624 115.72 140.254 111.314 144.293 105.316C148.454 99.319 150.535 92.3424 150.535 84.3867C150.535 74.5951 147.659 66.5169 141.906 60.1523C136.154 53.7878 128.871 49.8099 120.059 48.2188C113.572 46.9948 100.536 46.3828 80.9531 46.3828H54.6992ZM202.309 270V218.41H253.898V270H202.309ZM308.059 270V0.851562H362.402V120.371L472.191 0.851562H545.262L443.918 105.684L550.77 270H480.453L406.465 143.688L362.402 188.668V270H308.059ZM617.23 134.508L570.414 126.062C575.677 107.214 584.734 93.2604 597.586 84.2031C610.438 75.1458 629.531 70.6172 654.867 70.6172C677.878 70.6172 695.013 73.3711 706.273 78.8789C717.534 84.2643 725.428 91.1797 729.957 99.625C734.608 107.948 736.934 123.309 736.934 145.707L736.383 205.926C736.383 223.061 737.178 235.729 738.77 243.93C740.483 252.008 743.604 260.698 748.133 270H697.094C695.747 266.573 694.095 261.493 692.137 254.762C691.28 251.702 690.668 249.682 690.301 248.703C681.488 257.271 672.064 263.697 662.027 267.98C651.991 272.264 641.281 274.406 629.898 274.406C609.826 274.406 593.975 268.96 582.348 258.066C570.842 247.173 565.09 233.404 565.09 216.758C565.09 205.742 567.721 195.951 572.984 187.383C578.247 178.693 585.591 172.083 595.016 167.555C604.562 162.904 618.271 158.865 636.141 155.438C660.253 150.909 676.96 146.686 686.262 142.77V137.629C686.262 127.715 683.814 120.677 678.918 116.516C674.022 112.232 664.781 110.09 651.195 110.09C642.016 110.09 634.855 111.926 629.715 115.598C624.574 119.147 620.413 125.451 617.23 134.508ZM686.262 176.367C679.652 178.57 669.188 181.202 654.867 184.262C640.547 187.322 631.184 190.32 626.777 193.258C620.046 198.031 616.68 204.09 616.68 211.434C616.68 218.655 619.372 224.897 624.758 230.16C630.143 235.423 636.997 238.055 645.32 238.055C654.622 238.055 663.496 234.995 671.941 228.875C678.184 224.224 682.284 218.533 684.242 211.801C685.589 207.395 686.262 199.01 686.262 186.648V176.367ZM916.305 270V240.809C909.206 251.212 899.842 259.413 888.215 265.41C876.71 271.408 864.531 274.406 851.68 274.406C838.583 274.406 826.833 271.53 816.43 265.777C806.026 260.025 798.499 251.947 793.848 241.543C789.197 231.139 786.871 216.758 786.871 198.398V75.0234H838.461V164.617C838.461 192.034 839.379 208.863 841.215 215.105C843.173 221.225 846.661 226.121 851.68 229.793C856.698 233.342 863.062 235.117 870.773 235.117C879.586 235.117 887.48 232.73 894.457 227.957C901.434 223.061 906.207 217.064 908.777 209.965C911.348 202.743 912.633 185.18 912.633 157.273V75.0234H964.223V270H916.305ZM999.656 214.371L1051.43 206.477C1053.63 216.513 1058.1 224.163 1064.83 229.426C1071.56 234.566 1080.99 237.137 1093.11 237.137C1106.45 237.137 1116.48 234.689 1123.21 229.793C1127.74 226.366 1130.01 221.776 1130.01 216.023C1130.01 212.107 1128.78 208.863 1126.34 206.293C1123.77 203.845 1118.01 201.581 1109.08 199.5C1067.46 190.32 1041.09 181.936 1029.95 174.348C1014.53 163.822 1006.82 149.195 1006.82 130.469C1006.82 113.578 1013.49 99.3802 1026.83 87.875C1040.17 76.3698 1060.85 70.6172 1088.88 70.6172C1115.57 70.6172 1135.39 74.9622 1148.37 83.6523C1161.34 92.3424 1170.28 105.194 1175.17 122.207L1126.52 131.203C1124.44 123.615 1120.46 117.801 1114.59 113.762C1108.83 109.723 1100.57 107.703 1089.8 107.703C1076.21 107.703 1066.48 109.6 1060.61 113.395C1056.69 116.087 1054.73 119.576 1054.73 123.859C1054.73 127.531 1056.45 130.652 1059.88 133.223C1064.53 136.65 1080.56 141.484 1107.98 147.727C1135.52 153.969 1154.73 161.618 1165.62 170.676C1176.4 179.855 1181.78 192.646 1181.78 209.047C1181.78 226.917 1174.32 242.277 1159.38 255.129C1144.45 267.98 1122.36 274.406 1093.11 274.406C1066.55 274.406 1045.49 269.021 1029.95 258.25C1014.53 247.479 1004.43 232.853 999.656 214.371ZM1278.54 0.851562V99.8086C1295.18 80.3477 1315.07 70.6172 1338.2 70.6172C1350.08 70.6172 1360.79 72.8203 1370.33 77.2266C1379.88 81.6328 1387.04 87.263 1391.81 94.1172C1396.71 100.971 1400.01 108.56 1401.73 116.883C1403.56 125.206 1404.48 138.118 1404.48 155.621V270H1352.89V167.004C1352.89 146.564 1351.91 133.59 1349.95 128.082C1347.99 122.574 1344.51 118.229 1339.49 115.047C1334.59 111.742 1328.41 110.09 1320.95 110.09C1312.38 110.09 1304.73 112.171 1298 116.332C1291.26 120.493 1286.31 126.797 1283.12 135.242C1280.07 143.565 1278.54 155.927 1278.54 172.328V270H1226.95V0.851562H1278.54ZM1495.54 134.508L1448.73 126.062C1453.99 107.214 1463.05 93.2604 1475.9 84.2031C1488.75 75.1458 1507.84 70.6172 1533.18 70.6172C1556.19 70.6172 1573.33 73.3711 1584.59 78.8789C1595.85 84.2643 1603.74 91.1797 1608.27 99.625C1612.92 107.948 1615.25 123.309 1615.25 145.707L1614.7 205.926C1614.7 223.061 1615.49 235.729 1617.08 243.93C1618.8 252.008 1621.92 260.698 1626.45 270H1575.41C1574.06 266.573 1572.41 261.493 1570.45 254.762C1569.59 251.702 1568.98 249.682 1568.61 248.703C1559.8 257.271 1550.38 263.697 1540.34 267.98C1530.3 272.264 1519.59 274.406 1508.21 274.406C1488.14 274.406 1472.29 268.96 1460.66 258.066C1449.15 247.173 1443.4 233.404 1443.4 216.758C1443.4 205.742 1446.03 195.951 1451.3 187.383C1456.56 178.693 1463.9 172.083 1473.33 167.555C1482.88 162.904 1496.58 158.865 1514.45 155.438C1538.57 150.909 1555.27 146.686 1564.57 142.77V137.629C1564.57 127.715 1562.13 120.677 1557.23 116.516C1552.33 112.232 1543.09 110.09 1529.51 110.09C1520.33 110.09 1513.17 111.926 1508.03 115.598C1502.89 119.147 1498.73 125.451 1495.54 134.508ZM1564.57 176.367C1557.96 178.57 1547.5 181.202 1533.18 184.262C1518.86 187.322 1509.5 190.32 1505.09 193.258C1498.36 198.031 1494.99 204.09 1494.99 211.434C1494.99 218.655 1497.68 224.897 1503.07 230.16C1508.46 235.423 1515.31 238.055 1523.63 238.055C1532.93 238.055 1541.81 234.995 1550.25 228.875C1556.5 224.224 1560.6 218.533 1562.55 211.801C1563.9 207.395 1564.57 199.01 1564.57 186.648V176.367ZM1666.29 270V0.851562H1717.88V270H1666.29Z" fill="white"/>
</svg>
